<svg width="22.000000" height="27.000000" viewBox="0 0 22 27" fill="none" xmlns="http://www.w3.org/2000/svg" xmlns:xlink="http://www.w3.org/1999/xlink">
	<desc>
			Created with Pixso.
	</desc>
	<defs/>
	<path id="Vector" d="M11 27C10.27 26.99 9.57 26.71 9.05 26.2C8.53 25.7 8.24 25.01 8.23 24.3L13.73 24.3C13.73 24.66 13.66 25.01 13.53 25.35C13.35 25.75 13.08 26.1 12.73 26.38C12.39 26.66 11.98 26.85 11.54 26.94L11.48 26.94C11.32 26.97 11.16 26.99 11 27ZM22 22.94L0 22.94L0 20.25L2.75 18.9L2.75 11.47C2.67 9.57 3.11 7.67 4.02 5.99C4.46 5.22 5.07 4.54 5.8 4.02C6.53 3.49 7.36 3.12 8.25 2.94L8.25 0L13.75 0L13.75 2.94C17.29 3.77 19.25 6.8 19.25 11.47L19.25 18.9L22 20.25L22 22.94Z" fill="#05C0C7" fill-opacity="1.000000" fill-rule="nonzero"/>
</svg>
