<svg width="168" height="104" viewBox="0 0 168 104" fill="none" xmlns="http://www.w3.org/2000/svg">
<path d="M103.521 17.541C99.9589 17.541 97.0742 19.7106 97.0742 22.3834H109.971C109.969 19.7106 107.082 17.541 103.521 17.541Z" fill="#05C0C7"/>
<path d="M63.4754 17.541C59.9157 17.541 57.0283 19.7106 57.0283 22.3834H69.9251C69.9251 19.7106 67.0378 17.541 63.4754 17.541Z" fill="#05C0C7"/>
<path d="M106.224 1.49013e-07H60.7729C54.468 1.49013e-07 48.4212 2.50555 43.9629 6.96546C39.5046 11.4254 37 17.4743 37 23.7816V28.2131C36.9993 31.3366 37.6137 34.4296 38.8081 37.3156C40.0025 40.2015 41.7535 42.8238 43.961 45.0327C46.1686 47.2415 48.7896 48.9938 51.6742 50.1892C54.5588 51.3847 57.6506 52 60.7729 52H106.227C112.532 52 118.579 49.4944 123.037 45.0345C127.495 40.5746 130 34.5257 130 28.2184V23.7816C130 20.6583 129.385 17.5656 128.19 14.6801C126.995 11.7947 125.244 9.17288 123.036 6.96452C120.828 4.75616 118.207 3.00448 115.323 1.8095C112.438 0.614521 109.347 -0.00034947 106.224 1.49013e-07ZM80.3687 28.072H55.2732C55.2732 32.6029 61.7327 36.2767 69.7028 36.2767C72.5631 36.3044 75.4025 35.7885 78.0704 34.7566C75.8994 38.3902 72.4598 41.0905 68.4155 42.3361C64.3712 43.5817 60.009 43.2843 56.171 41.5014C52.3331 39.7184 49.2914 36.5763 47.6333 32.6816C45.9753 28.7869 45.8183 24.4159 47.1927 20.4122C48.5672 16.4085 51.3756 13.0562 55.0758 11.0023C58.776 8.94846 63.1056 8.33872 67.2288 9.29081C71.3521 10.2429 74.9765 12.6893 77.4025 16.1578C79.8285 19.6262 80.8839 23.8708 80.3652 28.072H80.3687ZM103.521 43.0207C100.581 43.0221 97.6919 42.2616 95.134 40.8133C92.576 39.3649 90.4369 37.2782 88.9252 34.7566C91.5918 35.7885 94.4301 36.3043 97.2892 36.2767C105.259 36.2767 111.722 32.6029 111.722 28.072H86.6277C86.2062 24.6416 86.8383 21.164 88.4401 18.1016C90.0419 15.0392 92.5374 12.5371 95.5951 10.9277C98.6527 9.31842 102.128 8.67817 105.558 9.09209C108.988 9.50601 112.211 10.9545 114.798 13.245C117.386 15.5356 119.215 18.5596 120.043 21.9152C120.871 25.2708 120.658 28.7989 119.433 32.0307C118.208 35.2625 116.029 38.0447 113.185 40.0076C110.341 41.9706 106.968 43.0212 103.513 43.0198L103.521 43.0207Z" fill="#05C0C7"/>
<path d="M7.46126 92.2989C6.28555 92.2989 5.31908 92.2192 4.56184 92.0598C3.8046 91.9203 3.19681 91.7111 2.73849 91.4321C2.30008 91.1332 1.99121 90.7645 1.81186 90.3261C1.65245 89.8877 1.57274 89.3696 1.57274 88.7718C1.57274 88.5924 1.5827 88.3433 1.60263 88.0245C1.62255 87.6857 1.65245 87.2174 1.6923 86.6196C1.73215 86.0218 1.78197 85.2546 1.84175 84.318C1.92146 83.3615 2.0211 82.1659 2.14066 80.7311C2.28016 78.9576 2.38976 77.5527 2.46947 76.5165C2.54918 75.4802 2.60896 74.6831 2.64881 74.1252C2.68867 73.5473 2.70859 73.1487 2.70859 72.9295C2.72852 72.6904 2.73849 72.4911 2.73849 72.3317C2.73849 72.0129 2.73849 71.7538 2.73849 71.5545C2.75841 71.3553 2.77834 71.2058 2.79827 71.1062C2.83812 70.9866 2.88794 70.9069 2.94772 70.8671C3.02743 70.8073 3.13703 70.7774 3.27652 70.7774C4.45224 70.6977 5.4486 70.6379 6.26562 70.598C7.10257 70.5582 7.82992 70.5383 8.44767 70.5383C9.96215 70.5383 11.2574 70.6678 12.3335 70.9268C13.4295 71.166 14.3163 71.5147 14.9938 71.973C15.6713 72.4314 16.1695 72.9993 16.4884 73.6768C16.8072 74.3543 16.9666 75.1215 16.9666 75.9784C16.9666 76.4567 16.9168 76.9549 16.8172 77.473C16.7175 77.9712 16.5481 78.4494 16.309 78.9077C16.0699 79.3661 15.7411 79.7746 15.3226 80.1333C14.9241 80.472 14.4159 80.7211 13.7982 80.8805C14.9539 81.2392 15.771 81.8371 16.2492 82.674C16.7275 83.491 16.9666 84.4675 16.9666 85.6033C16.9666 86.52 16.8172 87.3868 16.5182 88.2038C16.2193 89.0009 15.7012 89.7084 14.9639 90.3261C14.2266 90.9239 13.2502 91.4022 12.0346 91.7609C10.819 92.1196 9.29458 92.2989 7.46126 92.2989ZM9.16505 83.0327C8.94585 83.0327 8.67683 83.0526 8.358 83.0925C8.03916 83.1124 7.71036 83.1523 7.37159 83.212L7.04279 88.0843C7.76018 88.3035 8.40781 88.4131 8.98571 88.4131C9.60345 88.4131 10.1016 88.3234 10.4803 88.1441C10.8589 87.9647 11.1478 87.7455 11.3471 87.4865C11.5663 87.2075 11.7058 86.9086 11.7656 86.5897C11.8453 86.251 11.8851 85.9421 11.8851 85.6631C11.8851 84.9258 11.6759 84.308 11.2574 83.8099C10.8589 83.2918 10.1614 83.0327 9.16505 83.0327ZM7.90963 74.8127C7.86978 75.3308 7.82992 75.9386 7.79007 76.636C7.77014 77.3335 7.73028 78.0907 7.6705 78.9077C8.30818 79.0672 8.87611 79.1469 9.37429 79.1469C9.97211 79.1469 10.4504 79.0771 10.8091 78.9376C11.1678 78.7981 11.4467 78.6188 11.646 78.3996C11.8652 78.1804 12.0047 77.9413 12.0645 77.6822C12.1442 77.4232 12.184 77.1741 12.184 76.9349C12.184 76.3172 11.9748 75.7891 11.5563 75.3507C11.1578 74.8924 10.4603 74.6632 9.46396 74.6632C9.24476 74.6632 8.99567 74.6831 8.71669 74.723C8.45763 74.7429 8.18861 74.7728 7.90963 74.8127ZM18.6844 92C18.4652 92 18.3556 91.8904 18.3556 91.6712L18.4453 90.0571C18.4652 89.8777 18.4951 89.6585 18.5349 89.3995C18.5748 89.1205 18.6645 88.8913 18.804 88.712C19.1427 88.0942 19.5512 87.4267 20.0295 86.7093C20.5078 85.9919 21.0856 85.1151 21.7632 84.0789C22.4407 83.0427 23.2278 81.7972 24.1246 80.3425C25.0412 78.8679 26.0974 77.0744 27.293 74.9621H20.4779C20.3184 74.9621 20.2188 74.9322 20.179 74.8725C20.159 74.8127 20.1491 74.7031 20.1491 74.5436L20.2387 72.8698C20.2587 72.6107 20.2886 72.3616 20.3284 72.1225C20.3882 71.8634 20.4878 71.6343 20.6273 71.435C20.7867 71.2357 21.0059 71.0763 21.2849 70.9567C21.5639 70.8372 21.9326 70.7774 22.3909 70.7774H33.8093C33.9288 70.7774 34.0384 70.8073 34.1381 70.8671C34.2377 70.9268 34.2875 71.0364 34.2875 71.1959L34.1679 72.81C34.1281 73.3281 34.0085 73.7565 33.8093 74.0953C33.7495 74.1949 33.4605 74.6732 32.9424 75.5301C32.4243 76.367 31.7667 77.4331 30.9696 78.7284C30.1725 80.0237 29.2758 81.4684 28.2794 83.0626C27.303 84.6568 26.3166 86.241 25.3202 87.8153H32.9125C33.0321 87.8153 33.1417 87.8451 33.2413 87.9049C33.341 87.9647 33.3908 88.0743 33.3908 88.2337L33.2712 89.9973C33.2314 90.5951 33.062 91.0833 32.7631 91.462C32.4841 91.8207 31.8962 92 30.9995 92H18.6844ZM44.868 87.6359C45.685 87.6359 46.3725 87.5163 46.9305 87.2772C47.5084 87.0381 47.9966 86.7691 48.3951 86.4702C48.7937 86.1713 49.1424 85.9022 49.4413 85.6631C49.7602 85.424 50.079 85.3044 50.3978 85.3044C50.7964 85.3044 50.9957 85.6033 50.9957 86.2011C50.9957 86.52 50.9558 86.9086 50.8761 87.3669C50.7964 87.8053 50.6868 88.3035 50.5473 88.8614C50.4676 89.2002 50.2683 89.5689 49.9495 89.9674C49.6506 90.366 49.2321 90.7446 48.694 91.1033C48.156 91.442 47.4884 91.731 46.6913 91.9701C45.9142 92.1893 45.0175 92.2989 44.0012 92.2989C42.9849 92.2989 41.9686 92.1495 40.9523 91.8505C39.936 91.5516 39.0293 91.0435 38.2322 90.3261C37.4351 89.6087 36.7875 88.6422 36.2893 87.4267C35.7911 86.2111 35.542 84.6867 35.542 82.8534C35.542 82.1957 35.5819 81.4385 35.6616 80.5816C35.7612 79.7048 35.9405 78.8081 36.1996 77.8914C36.4587 76.9748 36.8174 76.0781 37.2757 75.2013C37.7539 74.3045 38.3617 73.5074 39.099 72.81C39.8363 72.1125 40.7331 71.5545 41.7892 71.1361C42.8653 70.6977 44.1406 70.4785 45.6153 70.4785C46.791 70.4785 47.8073 70.618 48.6642 70.8969C49.541 71.1759 50.2583 71.5645 50.8163 72.0627C51.3942 72.541 51.8127 73.1089 52.0717 73.7665C52.3507 74.4241 52.4902 75.1215 52.4902 75.8589C52.4902 77.1342 52.1116 78.0708 51.3543 78.6686C50.617 79.2465 49.5609 79.5354 48.1859 79.5354C47.7475 79.5354 47.4685 79.5056 47.349 79.4458C47.2493 79.3661 47.1995 79.2166 47.1995 78.9974C47.1796 78.3199 47.1596 77.732 47.1397 77.2338C47.1198 76.7357 47.05 76.3271 46.9305 76.0083C46.8109 75.6695 46.6216 75.4304 46.3625 75.2909C46.1234 75.1315 45.7847 75.0518 45.3463 75.0518C44.7086 75.0518 44.1606 75.1913 43.7022 75.4703C43.2638 75.7293 42.8852 76.0781 42.5664 76.5165C42.2675 76.9349 42.0184 77.4132 41.8191 77.9512C41.6398 78.4893 41.4903 79.0373 41.3707 79.5952C41.2711 80.1532 41.2014 80.6912 41.1615 81.2093C41.1416 81.7275 41.1316 82.1758 41.1316 82.5544C41.1316 84.3878 41.4305 85.693 42.0284 86.4702C42.6461 87.2473 43.5926 87.6359 44.868 87.6359ZM53.1534 88.3234C53.1534 86.5299 53.9605 85.1251 55.5746 84.1088C57.1887 83.0925 59.57 82.5445 62.7185 82.4648C62.7385 82.2456 62.7484 82.0662 62.7484 81.9267C62.7684 81.7673 62.7783 81.578 62.7783 81.3588C62.7783 80.7211 62.6588 80.213 62.4196 79.8344C62.1805 79.4557 61.6823 79.2664 60.9251 79.2664C60.5066 79.2664 60.1678 79.3262 59.9088 79.4458C59.6497 79.5653 59.4405 79.7347 59.2811 79.9539C59.1216 80.1532 58.9921 80.4023 58.8925 80.7012C58.7928 81.0001 58.7032 81.3289 58.6235 81.6876C58.5836 81.8669 58.4939 81.9865 58.3544 82.0463C58.215 82.0861 57.9958 82.1061 57.6968 82.1061C55.6643 82.1061 54.648 81.3389 54.648 79.8045C54.648 79.1867 54.7875 78.5989 55.0664 78.0409C55.3653 77.4829 55.7938 77.0047 56.3517 76.6061C56.9296 76.1877 57.647 75.8589 58.5039 75.6197C59.3608 75.3806 60.3571 75.261 61.493 75.261C63.7049 75.261 65.3091 75.7194 66.3055 76.636C67.3018 77.5527 67.8 78.848 67.8 80.5219C67.8 80.7411 67.7701 81.1396 67.7103 81.7175C67.6705 82.2755 67.6107 82.8733 67.531 83.511C67.4712 84.1287 67.4114 84.7166 67.3516 85.2745C67.3118 85.8325 67.2919 86.2211 67.2919 86.4403C67.2919 86.9385 67.3815 87.2971 67.5609 87.5163C67.7402 87.7156 67.9395 87.8551 68.1587 87.9348C68.3978 88.0145 68.6071 88.0743 68.7864 88.1142C68.9658 88.154 69.0554 88.2537 69.0554 88.4131C69.0554 88.8515 68.9956 89.2998 68.8761 89.7582C68.7565 90.2165 68.5572 90.635 68.2783 91.0136C68.0192 91.3922 67.6505 91.7011 67.1723 91.9402C66.714 92.1793 66.146 92.2989 65.4685 92.2989C64.512 92.2989 63.7946 92.0697 63.3164 91.6114C62.8381 91.1531 62.5193 90.5154 62.3598 89.6984C61.8816 90.3958 61.2539 91.0036 60.4767 91.5217C59.7195 92.0399 58.7231 92.2989 57.4876 92.2989C56.8898 92.2989 56.3219 92.2292 55.7838 92.0897C55.2657 91.9502 54.8074 91.721 54.4088 91.4022C54.0302 91.0833 53.7213 90.6748 53.4822 90.1766C53.263 89.6585 53.1534 89.0408 53.1534 88.3234ZM62.4495 84.9158C61.9314 84.9158 61.4233 84.9557 60.9251 85.0354C60.4269 85.1151 59.9785 85.2446 59.58 85.424C59.2014 85.5834 58.8925 85.8026 58.6534 86.0816C58.4142 86.3606 58.2947 86.6993 58.2947 87.0979C58.2947 87.5562 58.4342 87.875 58.7131 88.0544C59.012 88.2337 59.3309 88.3234 59.6696 88.3234C59.9885 88.3234 60.3073 88.2537 60.6262 88.1142C60.945 87.9747 61.224 87.7654 61.4631 87.4865C61.7222 87.1875 61.9414 86.8289 62.1207 86.4104C62.3001 85.9919 62.4097 85.4937 62.4495 84.9158ZM77.8576 75.261C79.5515 75.261 80.7969 75.5998 81.594 76.2773C82.3911 76.9349 82.7896 77.7818 82.7896 78.8181C82.7896 79.6949 82.5107 80.3624 81.9527 80.8208C81.4147 81.2791 80.6275 81.5083 79.5913 81.5083C79.3123 81.5083 79.123 81.4784 79.0234 81.4186C78.9237 81.3588 78.8739 81.2492 78.8739 81.0898C78.8739 80.9104 78.854 80.7112 78.8141 80.492C78.7942 80.2528 78.7245 80.0336 78.6049 79.8344C78.5053 79.6152 78.3359 79.4358 78.0968 79.2963C77.8776 79.1568 77.5587 79.0871 77.1402 79.0871C76.5823 79.0871 76.1339 79.2266 75.7952 79.5056C75.4564 79.7646 75.287 80.0934 75.287 80.492C75.287 80.9104 75.4564 81.2492 75.7952 81.5083C76.1538 81.7474 76.5922 81.9765 77.1104 82.1957C77.6484 82.4149 78.2263 82.6441 78.844 82.8832C79.4618 83.1024 80.0297 83.4014 80.5478 83.78C81.0859 84.1586 81.5243 84.6368 81.863 85.2147C82.2217 85.7727 82.4011 86.5001 82.4011 87.3968C82.4011 88.8316 81.8929 90.0073 80.8766 90.9239C79.8603 91.8406 78.3359 92.2989 76.3033 92.2989C75.7453 92.2989 75.0977 92.2491 74.3604 92.1495C73.643 92.0697 72.9555 91.9402 72.2979 91.7609C71.6403 91.5616 71.0823 91.3025 70.624 90.9837C70.1856 90.6649 69.9664 90.2663 69.9664 89.7881C69.9664 89.6087 69.9963 89.3895 70.0561 89.1305C70.1358 88.8714 70.2454 88.6223 70.3849 88.3832C70.5443 88.1441 70.7236 87.9448 70.9229 87.7854C71.1421 87.606 71.4012 87.5163 71.7001 87.5163C71.9392 87.5163 72.1584 87.5761 72.3577 87.6957C72.557 87.8153 72.7861 87.9448 73.0452 88.0843C73.3242 88.2038 73.6629 88.3234 74.0615 88.443C74.46 88.5625 74.9881 88.6223 75.6457 88.6223C76.1439 88.6223 76.5823 88.5625 76.9609 88.443C77.3594 88.3234 77.5587 88.0544 77.5587 87.6359C77.5587 87.2573 77.3993 86.9584 77.0805 86.7392C76.7616 86.5001 76.3531 86.2809 75.8549 86.0816C75.3767 85.8823 74.8486 85.6731 74.2707 85.4539C73.7127 85.2147 73.1847 84.9059 72.6865 84.5272C72.2082 84.1486 71.8097 83.6704 71.4908 83.0925C71.172 82.4947 71.0126 81.7275 71.0126 80.7909C71.0126 79.7746 71.2119 78.9177 71.6104 78.2202C72.0289 77.5029 72.557 76.925 73.1946 76.4866C73.8522 76.0482 74.5895 75.7393 75.4066 75.5599C76.2236 75.3607 77.0406 75.261 77.8576 75.261ZM94.8574 88.2935C94.9172 87.6359 94.977 86.9484 95.0368 86.231C95.1165 85.5137 95.1763 84.8262 95.2161 84.1686C95.2759 83.511 95.3257 82.9231 95.3656 82.405C95.4054 81.8869 95.4254 81.5083 95.4254 81.2691C95.4254 80.751 95.2958 80.2927 95.0368 79.8941C94.7977 79.4757 94.3194 79.2664 93.602 79.2664C92.6455 79.2664 91.8683 79.7148 91.2705 80.6115C90.6926 81.5083 90.3539 82.7039 90.2542 84.1984C90.2144 84.6169 90.1646 85.2048 90.1048 85.962C90.045 86.6993 89.9852 87.4566 89.9254 88.2337C89.8656 88.991 89.8059 89.6785 89.7461 90.2962C89.7062 90.894 89.6863 91.2627 89.6863 91.4022C89.6863 91.6413 89.6365 91.8007 89.5368 91.8804C89.4571 91.9601 89.2878 92 89.0287 92H87.9526C87.3349 92 86.8267 91.9402 86.4282 91.8207C86.0496 91.6812 85.7407 91.4919 85.5016 91.2527C85.2824 91.0136 85.1229 90.7247 85.0233 90.3859C84.9436 90.0272 84.9037 89.6187 84.9037 89.1604C84.9037 88.722 84.9336 88.1142 84.9934 87.337C85.0731 86.5399 85.1728 85.4539 85.2923 84.0789C85.4119 82.684 85.5514 80.9104 85.7108 78.7583C85.8702 76.6061 86.0396 73.9359 86.2189 70.7475C86.2389 70.3091 86.2887 70.05 86.3684 69.9703C86.4282 69.9105 86.5876 69.8807 86.8467 69.8807H88.0124C88.6102 69.8807 89.1084 69.9504 89.507 70.0899C89.9055 70.2294 90.2243 70.4187 90.4635 70.6578C90.7026 70.8969 90.872 71.1759 90.9716 71.4948C91.0713 71.7937 91.1211 72.1125 91.1211 72.4513C91.1211 72.81 91.0812 73.4775 91.0015 74.454C90.9417 75.4304 90.862 76.5762 90.7624 77.8914C91.3602 76.8951 92.0178 76.2076 92.7352 75.829C93.4725 75.4503 94.3991 75.261 95.515 75.261C96.352 75.261 97.0793 75.3507 97.6971 75.5301C98.3148 75.7094 98.823 76.0183 99.2215 76.4567C99.64 76.8751 99.9489 77.4331 100.148 78.1306C100.347 78.8081 100.447 79.655 100.447 80.6713C100.447 80.9901 100.417 81.5381 100.357 82.3153C100.298 83.0925 100.218 83.9792 100.118 84.9756C100.039 85.972 99.9489 87.0182 99.8492 88.1142C99.7695 89.1902 99.6998 90.1766 99.64 91.0734C99.6201 91.2926 99.6002 91.462 99.5802 91.5815C99.5603 91.7011 99.5204 91.7908 99.4607 91.8505C99.4208 91.9103 99.3511 91.9502 99.2514 91.9701C99.1518 91.99 99.0123 92 98.833 92H97.8764C97.2388 92 96.7207 91.9402 96.3221 91.8207C95.9236 91.7011 95.6147 91.5317 95.3955 91.3125C95.1763 91.0933 95.0169 90.8243 94.9172 90.5054C94.8375 90.1667 94.7977 89.7881 94.7977 89.3696C94.7977 89.1703 94.7977 88.981 94.7977 88.8017C94.8176 88.6223 94.8375 88.4529 94.8574 88.2935ZM109.964 92.2989C108.43 92.2989 107.214 92.0797 106.318 91.6413C105.421 91.183 104.743 90.615 104.285 89.9375C103.827 89.26 103.538 88.5326 103.418 87.7555C103.299 86.9584 103.239 86.231 103.239 85.5734C103.239 85.3144 103.259 84.8062 103.299 84.049C103.358 83.2918 103.428 82.4149 103.508 81.4186C103.588 80.4222 103.667 79.3661 103.747 78.2501C103.827 77.1143 103.906 76.0482 103.986 75.0518C104.066 74.0355 104.126 73.1388 104.165 72.3616C104.225 71.5844 104.255 71.0464 104.255 70.7475C104.255 70.3091 104.285 70.06 104.345 70.0002C104.405 69.9205 104.584 69.8807 104.883 69.8807H106.049C106.646 69.8807 107.145 69.9504 107.543 70.0899C107.942 70.2294 108.261 70.4187 108.5 70.6578C108.739 70.8969 108.908 71.1759 109.008 71.4948C109.107 71.7937 109.157 72.1225 109.157 72.4812C109.157 72.8199 109.117 73.4775 109.038 74.454C108.978 75.4304 108.898 76.5762 108.799 77.8914C109.317 76.9947 109.905 76.3371 110.562 75.9186C111.22 75.4802 112.087 75.261 113.163 75.261C114.976 75.261 116.361 75.8589 117.318 77.0545C118.294 78.2501 118.782 80.0336 118.782 82.405C118.782 83.0227 118.732 83.7003 118.633 84.4376C118.553 85.1749 118.394 85.9122 118.154 86.6495C117.935 87.3669 117.616 88.0743 117.198 88.7718C116.799 89.4493 116.271 90.0471 115.614 90.5652C114.956 91.0833 114.159 91.5018 113.222 91.8207C112.306 92.1395 111.22 92.2989 109.964 92.2989ZM111.309 79.2365C110.592 79.2365 110.024 79.4258 109.606 79.8045C109.207 80.1831 108.898 80.6414 108.679 81.1795C108.46 81.7175 108.32 82.2954 108.261 82.9131C108.201 83.511 108.171 84.039 108.171 84.4974C108.171 85.8723 108.36 86.8587 108.739 87.4566C109.117 88.0345 109.685 88.3234 110.443 88.3234C111.16 88.3234 111.718 88.1042 112.116 87.6658C112.535 87.2075 112.844 86.6694 113.043 86.0517C113.262 85.4339 113.402 84.8062 113.462 84.1686C113.521 83.5309 113.551 83.0327 113.551 82.674C113.551 81.5581 113.382 80.7112 113.043 80.1333C112.704 79.5354 112.126 79.2365 111.309 79.2365ZM120.145 88.3234C120.145 86.5299 120.953 85.1251 122.567 84.1088C124.181 83.0925 126.562 82.5445 129.711 82.4648C129.731 82.2456 129.74 82.0662 129.74 81.9267C129.76 81.7673 129.77 81.578 129.77 81.3588C129.77 80.7211 129.651 80.213 129.412 79.8344C129.173 79.4557 128.674 79.2664 127.917 79.2664C127.499 79.2664 127.16 79.3262 126.901 79.4458C126.642 79.5653 126.433 79.7347 126.273 79.9539C126.114 80.1532 125.984 80.4023 125.885 80.7012C125.785 81.0001 125.695 81.3289 125.616 81.6876C125.576 81.8669 125.486 81.9865 125.347 82.0463C125.207 82.0861 124.988 82.1061 124.689 82.1061C122.656 82.1061 121.64 81.3389 121.64 79.8045C121.64 79.1867 121.78 78.5989 122.058 78.0409C122.357 77.4829 122.786 77.0047 123.344 76.6061C123.922 76.1877 124.639 75.8589 125.496 75.6197C126.353 75.3806 127.349 75.261 128.485 75.261C130.697 75.261 132.301 75.7194 133.298 76.636C134.294 77.5527 134.792 78.848 134.792 80.5219C134.792 80.7411 134.762 81.1396 134.702 81.7175C134.663 82.2755 134.603 82.8733 134.523 83.511C134.463 84.1287 134.403 84.7166 134.344 85.2745C134.304 85.8325 134.284 86.2211 134.284 86.4403C134.284 86.9385 134.374 87.2971 134.553 87.5163C134.732 87.7156 134.932 87.8551 135.151 87.9348C135.39 88.0145 135.599 88.0743 135.778 88.1142C135.958 88.154 136.047 88.2537 136.047 88.4131C136.047 88.8515 135.988 89.2998 135.868 89.7582C135.749 90.2165 135.549 90.635 135.27 91.0136C135.011 91.3922 134.643 91.7011 134.164 91.9402C133.706 92.1793 133.138 92.2989 132.461 92.2989C131.504 92.2989 130.787 92.0697 130.308 91.6114C129.83 91.1531 129.511 90.5154 129.352 89.6984C128.874 90.3958 128.246 91.0036 127.469 91.5217C126.712 92.0399 125.715 92.2989 124.48 92.2989C123.882 92.2989 123.314 92.2292 122.776 92.0897C122.258 91.9502 121.799 91.721 121.401 91.4022C121.022 91.0833 120.713 90.6748 120.474 90.1766C120.255 89.6585 120.145 89.0408 120.145 88.3234ZM129.442 84.9158C128.923 84.9158 128.415 84.9557 127.917 85.0354C127.419 85.1151 126.971 85.2446 126.572 85.424C126.193 85.5834 125.885 85.8026 125.645 86.0816C125.406 86.3606 125.287 86.6993 125.287 87.0979C125.287 87.5562 125.426 87.875 125.705 88.0544C126.004 88.2337 126.323 88.3234 126.662 88.3234C126.981 88.3234 127.299 88.2537 127.618 88.1142C127.937 87.9747 128.216 87.7654 128.455 87.4865C128.714 87.1875 128.933 86.8289 129.113 86.4104C129.292 85.9919 129.402 85.4937 129.442 84.9158ZM145.418 88.3234C145.996 88.3234 146.494 88.2437 146.912 88.0843C147.351 87.9249 147.729 87.7455 148.048 87.5462C148.367 87.347 148.636 87.1676 148.855 87.0082C149.074 86.8488 149.274 86.7691 149.453 86.7691C149.911 86.7691 150.14 87.068 150.14 87.6658C150.14 87.8053 150.111 88.0046 150.051 88.2636C149.991 88.5028 149.911 88.7618 149.812 89.0408C149.712 89.2998 149.602 89.5489 149.483 89.7881C149.383 90.0272 149.284 90.2065 149.184 90.3261C149.084 90.4257 148.905 90.5852 148.646 90.8044C148.407 91.0236 148.078 91.2428 147.659 91.462C147.241 91.6812 146.753 91.8705 146.195 92.0299C145.637 92.2092 145.019 92.2989 144.342 92.2989C143.584 92.2989 142.797 92.1893 141.98 91.9701C141.183 91.731 140.456 91.3324 139.798 90.7745C139.141 90.1966 138.593 89.4294 138.154 88.4729C137.736 87.4964 137.526 86.2809 137.526 84.8262C137.526 84.308 137.556 83.7202 137.616 83.0626C137.696 82.3851 137.845 81.6976 138.064 81.0001C138.284 80.2827 138.573 79.5853 138.931 78.9077C139.31 78.2103 139.808 77.5925 140.426 77.0545C141.044 76.5165 141.781 76.088 142.638 75.7692C143.515 75.4304 144.551 75.261 145.746 75.261C146.723 75.261 147.56 75.3806 148.257 75.6197C148.975 75.8389 149.563 76.1478 150.021 76.5463C150.479 76.925 150.818 77.3733 151.037 77.8914C151.276 78.4096 151.396 78.9675 151.396 79.5653C151.396 80.6414 151.057 81.4385 150.38 81.9566C149.702 82.4548 148.745 82.7039 147.51 82.7039C147.211 82.7039 147.002 82.684 146.882 82.6441C146.783 82.5843 146.733 82.4648 146.733 82.2854C146.733 81.8072 146.723 81.3787 146.703 81.0001C146.683 80.6215 146.623 80.3027 146.524 80.0436C146.444 79.7845 146.314 79.5853 146.135 79.4458C145.956 79.3063 145.697 79.2365 145.358 79.2365C144.74 79.2365 144.242 79.4358 143.863 79.8344C143.505 80.2329 143.226 80.7211 143.026 81.299C142.847 81.857 142.727 82.4349 142.668 83.0327C142.628 83.6305 142.608 84.1287 142.608 84.5272C142.608 85.9421 142.827 86.9285 143.265 87.4865C143.724 88.0444 144.441 88.3234 145.418 88.3234ZM167.262 89.5788C167.262 89.6785 167.213 89.8777 167.113 90.1766C167.013 90.4756 166.854 90.7844 166.635 91.1033C166.415 91.4221 166.136 91.7011 165.798 91.9402C165.479 92.1793 165.09 92.2989 164.632 92.2989C164.094 92.2989 163.556 92.1196 163.018 91.7609C162.5 91.4022 161.982 90.914 161.463 90.2962C160.945 89.6785 160.417 88.9511 159.879 88.1142C159.361 87.2573 158.833 86.3307 158.295 85.3343C158.215 86.3905 158.136 87.4267 158.056 88.443C157.976 89.4593 157.896 90.4457 157.817 91.4022C157.797 91.6413 157.747 91.8007 157.667 91.8804C157.588 91.9601 157.418 92 157.159 92H156.083C155.465 92 154.957 91.9402 154.559 91.8207C154.16 91.6812 153.851 91.4919 153.632 91.2527C153.413 91.0136 153.253 90.7147 153.154 90.356C153.074 89.9774 153.034 89.5489 153.034 89.0707C153.034 88.8316 153.044 88.5825 153.064 88.3234C153.084 88.0644 153.114 87.6957 153.154 87.2174C153.194 86.7392 153.243 86.1115 153.303 85.3343C153.383 84.5571 153.473 83.5309 153.572 82.2555C153.672 80.9802 153.781 79.4159 153.901 77.5626C154.041 75.6895 154.19 73.4178 154.349 70.7475C154.369 70.3091 154.419 70.05 154.499 69.9703C154.559 69.9105 154.718 69.8807 154.977 69.8807H156.143C156.761 69.8807 157.269 69.9504 157.667 70.0899C158.066 70.2294 158.385 70.4187 158.624 70.6578C158.863 70.8969 159.022 71.1759 159.102 71.4948C159.202 71.8136 159.252 72.1424 159.252 72.4812C159.252 72.6804 159.232 73.0192 159.192 73.4975C159.172 73.9558 159.142 74.5237 159.102 75.2013C159.062 75.8589 159.002 76.6061 158.923 77.4431C158.863 78.28 158.803 79.1568 158.743 80.0735L163.526 75.7094C163.705 75.55 163.865 75.4404 164.004 75.3806C164.164 75.3208 164.283 75.2909 164.363 75.2909C164.582 75.2909 164.821 75.4304 165.08 75.7094C165.339 75.9884 165.578 76.3172 165.798 76.6958C166.037 77.0545 166.226 77.4331 166.366 77.8317C166.525 78.2103 166.605 78.5192 166.605 78.7583C166.605 79.3362 166.136 79.944 165.2 80.5816C164.283 81.2193 162.888 81.9367 161.015 82.7338C161.852 83.6704 162.649 84.5272 163.406 85.3044C164.164 86.0816 164.821 86.7691 165.379 87.3669C165.957 87.9647 166.415 88.4529 166.754 88.8316C167.093 89.2102 167.262 89.4593 167.262 89.5788Z" fill="#05C0C7"/>
</svg>
